<?xml version="1.0" standalone="no"?>
<!DOCTYPE svg PUBLIC "-//W3C//DTD SVG 20010904//EN"
 "http://www.w3.org/TR/2001/REC-SVG-20010904/DTD/svg10.dtd">
<svg version="1.0" xmlns="http://www.w3.org/2000/svg"
 width="225.000000pt" height="225.000000pt" viewBox="0 0 225.000000 225.000000"
 preserveAspectRatio="xMidYMid meet">
<metadata>
Created by potrace 1.14, written by Peter Selinger 2001-2017
</metadata>
<g transform="translate(0.000000,225.000000) scale(0.100000,-0.100000)"
fill="#000000" stroke="none">
<path d="M1610 2243 c-37 -5 -139 -43 -172 -63 -16 -9 -103 -104 -195 -211
-91 -107 -189 -221 -218 -254 -29 -33 -94 -109 -146 -170 -51 -60 -98 -115
-104 -121 -5 -7 -29 -34 -51 -60 -92 -108 -249 -291 -278 -324 -75 -84 -146
-172 -146 -181 0 -20 28 -18 135 10 60 16 112 28 114 26 2 -3 -3 -15 -11 -27
-13 -20 -125 -216 -238 -418 -20 -36 -47 -83 -60 -105 -13 -22 -36 -65 -53
-95 -16 -30 -33 -59 -37 -65 -33 -44 -87 -164 -79 -172 6 -6 78 13 207 57
l197 67 82 277 c45 153 83 279 85 281 2 1 73 5 158 9 312 12 564 69 781 175
133 66 211 121 305 215 123 123 200 250 253 416 23 74 52 229 47 257 -2 10 -7
41 -10 68 -10 69 -76 201 -128 254 -59 60 -148 117 -216 137 -55 16 -170 25
-222 17z m258 -510 c7 -11 3 -36 -11 -77 -85 -254 -316 -456 -645 -565 -124
-41 -161 -39 -47 3 318 116 506 304 559 561 11 58 13 60 56 76 59 22 77 23 88
2z"/>
</g>
</svg>
