<svg width="32" height="33" fill="none" xmlns="http://www.w3.org/2000/svg"><path d="M6.72 20.588c0 1.837-1.496 3.322-3.347 3.322S.025 22.425.025 20.588c0-1.838 1.497-3.322 3.348-3.322H6.72v3.322ZM8.394 20.588c0-1.838 1.496-3.322 3.347-3.322 1.852 0 3.348 1.485 3.348 3.322v8.305c0 1.837-1.496 3.322-3.348 3.322-1.85 0-3.347-1.485-3.347-3.322v-8.305ZM11.741 7.249c-1.85 0-3.347-1.485-3.347-3.322S9.89.605 11.741.605c1.852 0 3.348 1.485 3.348 3.322v3.322H11.74ZM11.741 8.935c1.851 0 3.348 1.485 3.348 3.322 0 1.838-1.497 3.322-3.348 3.322H3.347C1.497 15.58 0 14.094 0 12.257s1.496-3.322 3.347-3.322h8.394ZM25.156 12.257c0-1.837 1.496-3.322 3.348-3.322 1.85 0 3.347 1.485 3.347 3.322 0 1.838-1.496 3.322-3.347 3.322h-3.348v-3.322ZM23.482 12.257c0 1.838-1.496 3.322-3.347 3.322s-3.347-1.485-3.347-3.322v-8.33c0-1.837 1.496-3.322 3.347-3.322s3.347 1.485 3.347 3.322v8.33ZM20.135 25.57c1.851 0 3.347 1.486 3.347 3.323s-1.496 3.322-3.347 3.322-3.347-1.485-3.347-3.322V25.57h3.347ZM20.135 23.91c-1.851 0-3.347-1.485-3.347-3.322 0-1.838 1.496-3.322 3.347-3.322h8.394c1.851 0 3.347 1.485 3.347 3.322S30.38 23.91 28.53 23.91h-8.394Z" fill="#fff"/></svg>
