<svg width="26" height="26" viewBox="0 0 26 26" fill="none" xmlns="http://www.w3.org/2000/svg">
<path d="M25.5938 13.25C25.5938 6.34375 19.9062 0.65625 13 0.65625C6.04297 0.65625 0.40625 6.34375 0.40625 13.25C0.40625 20.207 6.04297 25.8438 13 25.8438C19.9062 25.8438 25.5938 20.207 25.5938 13.25ZM11.5273 19.9531C11.2227 20.2578 10.6641 20.2578 10.3594 19.9531L5.07812 14.6719C4.77344 14.3672 4.77344 13.8086 5.07812 13.5039L6.24609 12.3867C6.55078 12.0312 7.05859 12.0312 7.36328 12.3867L10.9688 15.9414L18.5859 8.32422C18.8906 7.96875 19.3984 7.96875 19.7031 8.32422L20.8711 9.44141C21.1758 9.74609 21.1758 10.3047 20.8711 10.6094L11.5273 19.9531Z" fill="#3AFF66"/>
</svg>
