<svg width="26" height="26" viewBox="0 0 26 26" fill="none" xmlns="http://www.w3.org/2000/svg">
<path d="M13 0.65625C6.04297 0.65625 0.40625 6.29297 0.40625 13.25C0.40625 20.207 6.04297 25.8438 13 25.8438C19.957 25.8438 25.5938 20.207 25.5938 13.25C25.5938 6.29297 19.957 0.65625 13 0.65625ZM19.1445 16.6016C19.3984 16.8047 19.3984 17.2109 19.1445 17.4648L17.1641 19.4453C16.9102 19.6992 16.5039 19.6992 16.3008 19.4453L13 16.0938L9.64844 19.4453C9.44531 19.6992 9.03906 19.6992 8.78516 19.4453L6.80469 17.4141C6.55078 17.2109 6.55078 16.8047 6.80469 16.5508L10.1562 13.25L6.80469 9.94922C6.55078 9.74609 6.55078 9.33984 6.80469 9.08594L8.83594 7.10547C9.03906 6.85156 9.44531 6.85156 9.69922 7.10547L13 10.4062L16.3008 7.10547C16.5039 6.85156 16.9102 6.85156 17.1641 7.10547L19.1445 9.08594C19.3984 9.33984 19.3984 9.74609 19.1445 9.94922L15.8438 13.25L19.1445 16.6016Z" fill="#FF463A"/>
</svg>
