<svg width="26" height="26" fill="none" xmlns="http://www.w3.org/2000/svg"><path d="M13 .656C6.043.656.406 6.293.406 13.25S6.043 25.844 13 25.844s12.594-5.637 12.594-12.594S19.957.656 13 .656Zm6.145 15.946c.253.203.253.609 0 .863l-1.98 1.98c-.255.254-.661.254-.864 0L13 16.094l-3.352 3.351c-.203.254-.609.254-.863 0l-1.98-2.03c-.254-.204-.254-.61 0-.864l3.351-3.301-3.351-3.3c-.254-.204-.254-.61 0-.864l2.03-1.98c.204-.254.61-.254.864 0l3.301 3.3 3.3-3.3c.204-.254.61-.254.864 0l1.98 1.98c.254.254.254.66 0 .863l-3.3 3.301 3.3 3.352Z" fill="#FF463A"/></svg>