<svg width="32" height="33" viewBox="0 0 32 33" fill="none" xmlns="http://www.w3.org/2000/svg">
<path d="M6.7202 20.5877C6.7202 22.4249 5.22401 23.9098 3.37279 23.9098C1.52158 23.9098 0.0253906 22.4249 0.0253906 20.5877C0.0253906 18.7505 1.52158 17.2656 3.37279 17.2656H6.7202V20.5877Z" fill="white"/>
<path d="M8.39404 20.5877C8.39404 18.7505 9.89023 17.2656 11.7414 17.2656C13.5926 17.2656 15.0888 18.7505 15.0888 20.5877V28.8929C15.0888 30.7301 13.5926 32.215 11.7414 32.215C9.89023 32.215 8.39404 30.7301 8.39404 28.8929V20.5877Z" fill="white"/>
<path d="M11.7414 7.24902C9.89023 7.24902 8.39404 5.76415 8.39404 3.92694C8.39404 2.08973 9.89023 0.604858 11.7414 0.604858C13.5926 0.604858 15.0888 2.08973 15.0888 3.92694V7.24902H11.7414Z" fill="white"/>
<path d="M11.7413 8.93518C13.5925 8.93518 15.0887 10.4201 15.0887 12.2573C15.0887 14.0945 13.5925 15.5793 11.7413 15.5793H3.3474C1.49619 15.5793 0 14.0945 0 12.2573C0 10.4201 1.49619 8.93518 3.3474 8.93518H11.7413Z" fill="white"/>
<path d="M25.1562 12.2573C25.1562 10.4201 26.6524 8.93518 28.5037 8.93518C30.3549 8.93518 31.8511 10.4201 31.8511 12.2573C31.8511 14.0945 30.3549 15.5793 28.5037 15.5793H25.1562V12.2573Z" fill="white"/>
<path d="M23.4824 12.2573C23.4824 14.0945 21.9862 15.5794 20.135 15.5794C18.2838 15.5794 16.7876 14.0945 16.7876 12.2573V3.92694C16.7876 2.08973 18.2838 0.604858 20.135 0.604858C21.9862 0.604858 23.4824 2.08973 23.4824 3.92694V12.2573Z" fill="white"/>
<path d="M20.135 25.5708C21.9862 25.5708 23.4824 27.0557 23.4824 28.8929C23.4824 30.7301 21.9862 32.215 20.135 32.215C18.2838 32.215 16.7876 30.7301 16.7876 28.8929V25.5708H20.135Z" fill="white"/>
<path d="M20.135 23.9098C18.2838 23.9098 16.7876 22.4249 16.7876 20.5877C16.7876 18.7505 18.2838 17.2656 20.135 17.2656H28.5289C30.3801 17.2656 31.8763 18.7505 31.8763 20.5877C31.8763 22.4249 30.3801 23.9098 28.5289 23.9098H20.135Z" fill="white"/>
</svg>
